<?xml version="1.0" encoding="UTF-8"?>
<svg xmlns="http://www.w3.org/2000/svg" version="1.1" viewBox="0 0 595.28 110.52">
  <defs>
    <style>
      .cls-1 {
        fill: #1d1d1b;
        stroke: #1d1d1b;
        stroke-miterlimit: 10;
      }
    </style>
  </defs>
  <!-- Generator: Adobe Illustrator 28.7.3, SVG Export Plug-In . SVG Version: 1.2.0 Build 164)  -->
  <g>
    <g id="Calque_1">
      <polygon class="cls-1" points="66.36 4.5 79.12 43.77 120.42 43.77 87.01 68.05 99.77 107.33 66.36 83.05 32.94 107.33 45.71 68.05 12.3 43.77 53.59 43.77 66.36 4.5"/>
      <polygon class="cls-1" points="180.74 4.5 193.5 43.77 234.8 43.77 201.39 68.05 214.15 107.33 180.74 83.05 147.33 107.33 160.09 68.05 126.68 43.77 167.98 43.77 180.74 4.5"/>
      <polygon class="cls-1" points="295.12 4.48 307.88 43.76 349.18 43.76 315.77 68.03 328.53 107.31 295.12 83.03 261.71 107.31 274.47 68.03 241.06 43.76 282.36 43.76 295.12 4.48"/>
      <polygon class="cls-1" points="412.02 4.48 424.78 43.76 466.08 43.76 432.67 68.03 445.43 107.31 412.02 83.03 378.61 107.31 391.37 68.03 357.96 43.76 399.26 43.76 412.02 4.48"/>
      <polygon class="cls-1" points="528.92 4.68 541.68 43.96 582.98 43.96 549.57 68.23 562.33 107.51 528.92 83.23 495.51 107.51 508.27 68.23 474.86 43.96 516.16 43.96 528.92 4.68"/>
    </g>
  </g>
</svg>