<?xml version="1.0" encoding="UTF-8"?>
<svg xmlns="http://www.w3.org/2000/svg" version="1.1" viewBox="0 0 595.28 595.28">
  <defs>
    <style>
      .cls-1 {
        fill: #1d1d1b;
        stroke: #1d1d1b;
        stroke-miterlimit: 10;
      }
    </style>
  </defs>
  <!-- Generator: Adobe Illustrator 28.7.3, SVG Export Plug-In . SVG Version: 1.2.0 Build 164)  -->
  <g>
    <g id="Calque_1">
      <polygon class="cls-1" points="63.31 489.16 76.07 528.43 117.37 528.43 83.96 552.71 96.72 591.99 63.31 567.71 29.9 591.99 42.66 552.71 9.25 528.43 50.55 528.43 63.31 489.16"/>
      <polygon class="cls-1" points="177.69 489.16 190.45 528.43 231.75 528.43 198.34 552.71 211.1 591.99 177.69 567.71 144.28 591.99 157.04 552.71 123.63 528.43 164.93 528.43 177.69 489.16"/>
      <polygon class="cls-1" points="292.07 489.14 304.83 528.42 346.13 528.42 312.72 552.69 325.48 591.97 292.07 567.69 258.66 591.97 271.42 552.69 238.01 528.42 279.31 528.42 292.07 489.14"/>
      <polygon class="cls-1" points="408.97 489.14 421.73 528.42 463.03 528.42 429.62 552.69 442.38 591.97 408.97 567.69 375.56 591.97 388.32 552.69 354.91 528.42 396.21 528.42 408.97 489.14"/>
      <polygon class="cls-1" points="525.87 489.34 538.63 528.62 579.93 528.62 546.52 552.89 559.28 592.17 525.87 567.89 492.46 592.17 505.22 552.89 471.81 528.62 513.11 528.62 525.87 489.34"/>
    </g>
  </g>
</svg>