<?xml version="1.0" encoding="UTF-8"?>
<svg xmlns="http://www.w3.org/2000/svg" version="1.1" viewBox="0 0 595.28 109.79">
  <defs>
    <style>
      .cls-1 {
        fill: #1d1d1b;
      }

      .cls-1, .cls-2 {
        stroke: #1d1d1b;
        stroke-miterlimit: 10;
      }

      .cls-2 {
        fill: none;
        stroke-width: 4px;
      }
    </style>
  </defs>
  <!-- Generator: Adobe Illustrator 28.7.3, SVG Export Plug-In . SVG Version: 1.2.0 Build 164)  -->
  <g>
    <g id="Calque_1">
      <polygon class="cls-1" points="64.11 3.77 76.88 43.04 118.18 43.04 84.76 67.32 97.53 106.6 64.11 82.32 30.7 106.6 43.46 67.32 10.05 43.04 51.35 43.04 64.11 3.77"/>
      <polygon class="cls-1" points="178.5 3.77 191.26 43.04 232.56 43.04 199.15 67.32 211.91 106.6 178.5 82.32 145.08 106.6 157.85 67.32 124.43 43.04 165.73 43.04 178.5 3.77"/>
      <polygon class="cls-1" points="292.88 3.75 305.64 43.03 346.94 43.03 313.53 67.3 326.29 106.58 292.88 82.3 259.47 106.58 272.23 67.3 238.82 43.03 280.12 43.03 292.88 3.75"/>
      <polygon class="cls-1" points="409.78 3.75 422.54 43.03 463.84 43.03 430.43 67.3 443.19 106.58 409.78 82.3 376.37 106.58 389.13 67.3 355.72 43.03 397.01 43.03 409.78 3.75"/>
      <polygon class="cls-2" points="526.68 3.95 539.44 43.23 580.74 43.23 547.33 67.5 560.09 106.78 526.68 82.5 493.26 106.78 506.03 67.5 472.61 43.23 513.91 43.23 526.68 3.95"/>
    </g>
  </g>
</svg>